<svg id="Layer_1" data-name="Layer 1" xmlns="http://www.w3.org/2000/svg" viewBox="0 0 1275.84 1068.95"><defs><style>.cls-1{fill:#a20095;}.cls-2{fill:none;stroke:#a20095;stroke-miterlimit:10;}.cls-3{fill:#ff89fb;}</style></defs><path class="cls-1" d="M779,304.5a1.5,1.5,0,1,0-1.5-1.5A1.5,1.5,0,0,0,779,304.5Z" transform="translate(-76 0.22)"/><path class="cls-1" d="M107.81,489.08a1.5,1.5,0,1,0-1.5-1.5A1.5,1.5,0,0,0,107.81,489.08Z" transform="translate(-76 0.22)"/><path class="cls-2" d="M852,0" transform="translate(-76 0.22)"/><path class="cls-3" d="M1291.36,527.2c-2.36-189.13-129.23-326.9-175.67-370.91C1096.45,138.07,939.07-6.55,712.48,0,452.56,7.51,137.64,212.88,133.6,527.2c-4,310.09,293.73,547.06,590.4,541.44C1009.24,1063.24,1295.18,833.54,1291.36,527.2Z" transform="translate(-76 0.22)"/><path class="cls-3" d="M1351.84,1048.48,76,1039.84" transform="translate(-76 0.22)"/><path class="cls-3" d="M1354.72,1034.08" transform="translate(-76 0.22)"/></svg>