<?xml version="1.0" standalone="no"?>
<!DOCTYPE svg PUBLIC "-//W3C//DTD SVG 20010904//EN"
 "http://www.w3.org/TR/2001/REC-SVG-20010904/DTD/svg10.dtd">
<svg version="1.0" xmlns="http://www.w3.org/2000/svg"
 width="480.000000pt" height="480.000000pt" viewBox="0 0 480.000000 480.000000"
 preserveAspectRatio="xMidYMid meet">

<g transform="translate(0.000000,480.000000) scale(0.100000,-0.100000)"
fill="#000000" stroke="none">
<path d="M3733 2804 c-91 -45 -241 -230 -332 -410 -34 -68 -126 -162 -213
-218 -68 -43 -75 -45 -50 -8 11 15 36 74 56 132 20 57 43 112 51 120 23 25 18
30 -28 30 -30 0 -56 -8 -88 -29 -50 -32 -222 -191 -215 -198 3 -3 42 27 88 67
95 83 193 150 219 150 13 0 4 -13 -30 -45 -27 -25 -62 -71 -79 -103 -86 -162
-162 -212 -229 -151 l-26 24 16 -31 c29 -56 122 -73 216 -40 51 19 147 86 214
150 26 25 47 44 47 41 0 -3 -16 -46 -36 -95 -20 -50 -34 -93 -31 -97 14 -14
38 11 71 74 59 112 169 223 221 223 28 0 15 -36 -40 -109 -30 -40 -60 -90 -66
-112 -11 -34 -10 -41 6 -59 30 -34 82 -26 151 21 32 23 73 54 90 70 l31 30
-10 -50 c-9 -41 -8 -53 6 -75 15 -22 25 -26 65 -26 26 0 74 9 107 20 33 10 79
24 102 30 22 5 70 31 104 57 47 34 59 40 48 22 -92 -141 -162 -277 -174 -340
-5 -26 -2 -46 11 -70 l17 -34 12 35 c23 65 67 144 152 273 47 70 85 127 86
127 1 0 0 -22 -1 -49 -3 -44 -1 -51 22 -66 88 -58 306 135 306 272 0 25 -6 46
-16 54 -28 23 -90 14 -145 -20 l-51 -31 36 49 37 50 -25 16 c-15 10 -33 14
-46 10 -11 -3 -63 -58 -115 -120 -91 -109 -162 -174 -232 -209 -53 -27 -55
-18 -7 29 75 76 95 155 50 200 -45 45 -128 42 -201 -8 -16 -12 -71 -59 -121
-107 -83 -79 -176 -150 -196 -150 -17 0 -7 30 37 108 64 114 59 182 -15 182
-45 0 -76 -16 -121 -62 -49 -50 -41 -30 32 79 118 174 277 333 335 333 20 0
24 -5 24 -27 0 -16 -8 -42 -18 -58 -36 -58 -146 -151 -231 -194 -22 -12 -41
-26 -41 -31 0 -22 135 60 227 137 55 46 103 128 103 175 0 68 -77 88 -167 42z
m825 -447 c10 -121 -221 -324 -269 -236 -22 41 26 144 98 210 42 39 104 69
138 66 27 -2 30 -6 33 -40z m-500 -7 c12 -12 22 -31 22 -43 -1 -31 -25 -73
-34 -58 -12 18 -61 13 -91 -11 -31 -24 -58 -79 -49 -102 7 -18 -34 -31 -70
-22 -33 8 -38 27 -20 85 34 116 181 207 242 151z"/>
<path d="M2283 2710 c-29 -10 -63 -26 -75 -35 -23 -15 -23 -15 10 -9 25 5 32
3 32 -9 0 -19 -134 -220 -207 -310 -101 -125 -267 -242 -335 -235 -23 2 -37
11 -47 29 -13 24 -13 31 2 71 36 93 148 184 196 158 56 -29 -6 -95 -119 -126
-25 -7 -36 -13 -24 -13 40 -2 125 30 159 60 93 82 -7 151 -148 103 -50 -17
-142 -92 -152 -124 -7 -23 -178 -140 -205 -140 -10 0 -22 4 -25 10 -8 13 25
75 79 144 25 33 46 65 46 73 0 29 -47 45 -112 38 l-63 -7 23 24 c24 26 42 75
35 96 -7 19 -38 14 -61 -10 -28 -30 -44 -77 -37 -105 14 -57 -280 -302 -318
-264 -14 14 1 47 54 118 50 66 55 88 22 100 -10 3 -33 20 -51 37 -30 28 -39
31 -95 30 -90 0 -142 -28 -234 -122 -64 -65 -176 -152 -197 -152 -3 0 6 19 19
43 14 23 39 83 55 134 17 50 38 97 46 103 48 41 -53 42 -117 2 -49 -32 -222
-192 -215 -199 3 -3 47 32 99 77 98 85 179 140 209 140 12 0 3 -13 -28 -42
-24 -22 -69 -82 -98 -132 -30 -50 -65 -101 -78 -114 -47 -43 -113 -45 -144 -4
-7 9 -13 13 -13 7 -1 -5 7 -20 17 -31 62 -78 199 -58 340 48 l62 47 -6 -37
c-4 -29 -1 -43 16 -65 42 -54 138 -28 228 63 l33 33 -7 -29 c-24 -91 34 -121
134 -70 67 34 199 143 247 204 33 42 46 51 72 52 17 0 34 -4 37 -8 3 -5 -19
-45 -49 -90 -81 -120 -72 -182 24 -182 49 0 97 23 169 79 28 23 54 41 57 41 3
0 5 -16 5 -36 0 -26 8 -43 29 -65 26 -25 37 -29 88 -29 90 0 178 48 296 159
l38 36 -16 -44 c-23 -67 -20 -106 13 -131 55 -44 146 -8 276 111 34 31 56 45
52 34 -16 -38 -18 -119 -4 -138 23 -30 79 -32 140 -5 53 25 208 151 208 170 0
6 -15 -1 -32 -16 -138 -113 -213 -155 -252 -140 -24 9 -20 41 14 113 41 86
102 169 221 305 108 122 127 156 102 182 -20 19 -66 13 -140 -21 -59 -27 -68
-37 -23 -28 17 3 30 1 30 -4 0 -31 -181 -290 -261 -375 -117 -122 -251 -200
-287 -165 -36 37 67 215 236 404 54 61 105 126 112 144 12 28 12 33 -5 45 -24
18 -38 17 -102 -6z m-1323 -351 c0 -13 -31 -53 -77 -102 -108 -111 -188 -160
-208 -127 -11 18 34 98 88 156 58 64 107 93 160 94 31 0 37 -3 37 -21z"/>
<path d="M982 1765 c1 -62 2 -64 6 -20 l4 50 23 -50 23 -50 23 55 24 55 6 -55
6 -55 1 68 c1 37 -2 67 -7 67 -4 0 -16 -21 -26 -47 -25 -68 -30 -70 -50 -16
-27 74 -35 74 -33 -2z"/>
<path d="M1343 1765 c0 -38 2 -55 4 -37 2 17 7 32 11 32 4 0 20 -14 35 -32 18
-21 24 -25 18 -11 -6 12 -16 25 -21 28 -17 10 -11 37 12 64 13 14 6 11 -14 -8
l-37 -34 -4 34 c-2 19 -4 3 -4 -36z"/>
<path d="M1490 1765 l0 -65 38 2 c36 1 36 1 5 5 -27 4 -33 9 -33 28 0 19 6 24
33 28 l32 4 -32 1 c-28 2 -33 6 -33 26 0 20 6 25 33 29 31 4 31 4 -5 5 l-38 2
0 -65z"/>
<path d="M1740 1790 c11 -21 20 -52 21 -67 1 -27 1 -27 9 4 4 18 15 44 24 57
9 14 16 29 16 33 0 4 -10 -7 -22 -26 l-21 -33 -19 36 c-10 20 -21 36 -23 36
-3 0 4 -18 15 -40z"/>
<path d="M1890 1810 c-27 -27 -25 -66 5 -95 29 -30 35 -31 69 -4 46 36 23 119
-34 119 -11 0 -29 -9 -40 -20z m74 -6 c9 -8 16 -26 16 -40 0 -24 -31 -64 -50
-64 -16 0 -50 39 -50 58 0 26 29 62 50 62 10 0 26 -7 34 -16z"/>
<path d="M2150 1775 c0 -43 -4 -56 -19 -65 -40 -21 -56 -1 -64 80 -3 28 -4 26
-5 -12 -2 -37 3 -53 19 -69 21 -21 56 -19 71 5 9 12 11 116 3 116 -3 0 -5 -25
-5 -55z"/>
<path d="M2247 1823 c-4 -3 -6 -34 -6 -67 1 -34 4 -49 6 -33 6 35 39 37 55 2
6 -14 15 -25 20 -25 5 0 1 11 -8 26 -13 19 -14 28 -5 37 13 13 15 43 3 51 -4
2 -8 -8 -7 -22 0 -22 -5 -28 -27 -30 -25 -3 -28 0 -28 27 0 23 5 31 23 34 20
4 20 4 1 6 -11 0 -24 -2 -27 -6z"/>
<path d="M2500 1766 l0 -66 34 0 c25 0 39 7 50 22 34 48 13 95 -47 105 l-37 6
0 -67z m70 34 c36 -36 18 -90 -30 -90 -30 0 -30 1 -30 55 0 48 2 55 20 55 11
0 29 -9 40 -20z"/>
<path d="M2677 1823 c-4 -3 -7 -33 -7 -65 l0 -58 38 2 c36 1 36 1 5 5 -27 4
-33 9 -33 28 0 19 6 24 33 28 l32 4 -33 1 c-29 2 -33 5 -30 24 2 16 12 25 33
29 l30 7 -31 1 c-17 0 -34 -2 -37 -6z"/>
<path d="M2821 1763 c1 -38 4 -56 6 -40 4 23 9 27 36 28 l32 1 -30 7 c-23 5
-31 12 -33 33 -3 23 1 27 30 31 l33 4 -37 1 -38 2 1 -67z"/>
<path d="M2960 1765 l0 -65 38 2 c36 1 36 1 5 5 -27 4 -33 9 -33 28 0 19 6 24
33 28 l32 4 -32 1 c-28 2 -33 6 -33 26 0 20 6 25 33 29 31 4 31 4 -5 5 l-38 2
0 -65z"/>
<path d="M3111 1763 c1 -38 4 -56 6 -40 3 19 10 27 24 27 10 0 19 -4 19 -8 0
-5 7 -17 15 -28 14 -17 14 -15 0 14 -8 17 -11 32 -6 32 5 0 13 10 17 22 8 25
-17 48 -53 48 -22 0 -23 -3 -22 -67z m59 42 c16 -19 -3 -45 -31 -45 -14 0 -19
7 -19 30 0 23 5 30 19 30 10 0 24 -7 31 -15z"/>
<path d="M3267 1823 c-4 -3 -7 -33 -7 -65 l0 -58 38 2 c36 1 36 1 5 5 -27 4
-33 9 -33 28 0 19 6 24 33 28 l32 4 -33 1 c-29 2 -33 5 -30 24 2 16 12 25 33
29 l30 7 -31 1 c-17 0 -34 -2 -37 -6z"/>
<path d="M3412 1763 l1 -68 6 55 6 55 35 -52 c19 -29 38 -53 43 -53 4 0 6 30
5 68 l-1 67 -6 -59 -6 -60 -38 57 c-20 31 -39 57 -42 57 -3 0 -4 -30 -3 -67z"/>
<path d="M3608 1813 c-23 -27 -28 -51 -18 -78 12 -31 55 -54 72 -37 8 8 6 10
-8 6 -29 -8 -55 17 -56 53 -1 43 19 66 53 61 16 -3 26 -1 23 4 -9 14 -50 9
-66 -9z"/>
<path d="M3750 1765 l0 -65 38 2 c36 1 36 1 5 5 -27 4 -33 9 -33 28 0 19 6 24
33 28 l32 4 -32 1 c-28 2 -33 6 -33 26 0 20 6 25 33 29 31 4 31 4 -5 5 l-38 2
0 -65z"/>
<path d="M1190 1765 c-13 -31 -20 -58 -17 -61 3 -3 8 4 12 15 9 30 61 29 68
-1 4 -12 9 -20 11 -17 7 6 -36 119 -45 119 -4 0 -17 -25 -29 -55z m50 -7 c0
-4 -9 -8 -20 -8 -21 0 -24 8 -13 36 6 16 7 16 20 -2 7 -10 13 -21 13 -26z"/>
</g>
</svg>
